<svg viewBox="0 0 426 426" fill="none">
<g clip-path="url(#clip0)">
<path d="M163.503 106.934C147.882 91.313 122.555 91.313 106.934 106.934C91.313 122.555 91.313 147.882 106.934 163.503L262.497 319.066C278.118 334.687 303.445 334.687 319.066 319.066C334.687 303.445 334.687 278.118 319.066 262.497L163.503 106.934Z" fill="white"/>
<path d="M106.934 262.497C91.313 278.118 91.313 303.445 106.934 319.066C122.555 334.687 147.882 334.687 163.503 319.066L319.066 163.503C334.687 147.882 334.687 122.555 319.066 106.934C303.445 91.313 278.118 91.313 262.497 106.934L106.934 262.497Z" fill="white"/>
</g>
<defs>
<clipPath id="clip0">
<rect width="300" height="300" fill="white" transform="translate(0.867966 213) rotate(-45)"/>
</clipPath>
</defs>
</svg>
