<svg viewBox="0 0 300 200" fill="#0B032D">
<path d="M269.006 84.8594L178.756 28.75C176.041 27.0676 172.924 26.1461 169.731 26.082C166.537 26.0179 163.386 26.8137 160.605 28.3859C157.825 29.9581 155.519 32.249 153.928 35.0185C152.337 37.7881 151.52 40.9344 151.562 44.1281V155.872C151.562 160.596 153.439 165.127 156.78 168.467C160.12 171.808 164.651 173.684 169.375 173.684C172.667 173.756 175.914 172.913 178.756 171.25L269.006 115.378C271.584 113.781 273.711 111.552 275.186 108.902C276.661 106.252 277.435 103.27 277.435 100.237C277.435 97.205 276.661 94.2226 275.186 91.573C273.711 88.9235 271.584 86.6943 269.006 85.0969V84.8594Z" fill="#0B032D"/>
<path d="M167.375 84.0625L72.375 25C69.5172 23.229 66.2358 22.259 62.8744 22.1916C59.513 22.1242 56.1953 22.9618 53.2687 24.6167C50.3422 26.2717 47.9145 28.6831 46.2398 31.5984C44.5652 34.5137 43.7052 37.8257 43.75 41.1875V158.812C43.75 163.785 45.7254 168.554 49.2417 172.071C52.758 175.587 57.5272 177.562 62.5 177.562C65.9652 177.637 69.3834 176.75 72.375 175L167.375 116.187C170.088 114.506 172.327 112.159 173.88 109.37C175.433 106.581 176.248 103.442 176.248 100.25C176.248 97.0579 175.433 93.9186 173.88 91.1295C172.327 88.3405 170.088 85.994 167.375 84.3125V84.0625Z" fill="#0B032D"/>
</svg>
