<svg viewBox="0 0 300 200">
<path d="M30.9937 84.8594L121.244 28.75C123.959 27.0676 127.076 26.1461 130.269 26.082C133.463 26.0179 136.614 26.8137 139.395 28.3859C142.175 29.9581 144.481 32.249 146.072 35.0185C147.663 37.7881 148.48 40.9344 148.438 44.1281V155.872C148.438 160.596 146.561 165.127 143.22 168.467C139.88 171.808 135.349 173.684 130.625 173.684C127.333 173.756 124.086 172.913 121.244 171.25L30.9937 115.378C28.4161 113.781 26.289 111.552 24.8139 108.902C23.3388 106.252 22.5645 103.27 22.5645 100.237C22.5645 97.205 23.3388 94.2226 24.8139 91.573C26.289 88.9235 28.4161 86.6943 30.9937 85.0969V84.8594Z" fill="#0B032D"/>
<path d="M132.625 84.0625L227.625 25C230.483 23.229 233.764 22.259 237.126 22.1916C240.487 22.1242 243.805 22.9618 246.731 24.6167C249.658 26.2717 252.086 28.6831 253.76 31.5984C255.435 34.5137 256.295 37.8257 256.25 41.1875V158.812C256.25 163.785 254.275 168.554 250.758 172.071C247.242 175.587 242.473 177.562 237.5 177.562C234.035 177.637 230.617 176.75 227.625 175L132.625 116.187C129.912 114.506 127.673 112.159 126.12 109.37C124.567 106.581 123.752 103.442 123.752 100.25C123.752 97.0579 124.567 93.9186 126.12 91.1295C127.673 88.3405 129.912 85.994 132.625 84.3125V84.0625Z" fill="#0B032D"/>
</svg>
